<svg display="none" xmlns="http://www.w3.org/2000/svg">
  <symbol id="right" viewBox="0 0 18 10">
    <path d="M17.4243 5.42426C17.6586 5.18995 17.6586 4.81005 17.4243 4.57574L13.6059 0.757359C13.3716 0.523045 12.9917 0.523045 12.7574 0.757359C12.523 0.991674 12.523 1.37157 12.7574 1.60589L16.1515 5L12.7574 8.39411C12.523 8.62843 12.523 9.00833 12.7574 9.24264C12.9917 9.47696 13.3716 9.47696 13.6059 9.24264L17.4243 5.42426ZM0 5.6H17V4.4H0V5.6Z"/>    
  </symbol>
  <symbol id="left" viewBox="0 0 18 10">
    <path d="M0.575701 4.5757C0.341401 4.81001 0.341401 5.18991 0.575701 5.42422L4.3941 9.2426C4.6284 9.47691 5.0083 9.47691 5.2426 9.2426C5.477 9.00828 5.477 8.62839 5.2426 8.39407L1.8485 4.99996L5.2426 1.60585C5.477 1.37153 5.477 0.991628 5.2426 0.757317C5.0083 0.522998 4.6284 0.522998 4.3941 0.757317L0.575701 4.5757ZM18 4.39996L1 4.39996L1 5.59996L18 5.59996L18 4.39996Z"/>
  </symbol>
</svg>
